# xmcd CD database file
#
# Track frame offsets:
#	150
#	52049
#	84852
#	130755
#	196279
#	218134
#
# Disc length: 3519 seconds
#
# Revision: 0
# Processed by: cddbd v1.5.1PL0 Copyright (c) Steve Scherf et al.
# Submitted via: CDex 1.51
#
DISCID=4c0dbd06
DTITLE=Dave Holland Quartet - Extensions
DYEAR=1990
DGENRE=Jazz
TTITLE0=Nemesis
TTITLE1=Processional
TTITLE2=Black Hole
TTITLE3=The Oracle
TTITLE4=101 Fahrenheit (Slow Meltdown)
TTITLE5=Color Of Mind
EXTD=YEAR: 1990
EXTT0=
EXTT1=
EXTT2=
EXTT3=
EXTT4=
EXTT5=
PLAYORDER=
